<svg width="16" height="16" viewBox="0 0 16 16" fill="none" xmlns="http://www.w3.org/2000/svg">
<g clip-path="url(#clip0_2344_1182)">
<path fill-rule="evenodd" clip-rule="evenodd" d="M8.76812 3.1348L7.66527 4.23651C7.44972 4.44469 7.16103 4.55989 6.86138 4.55728C6.56173 4.55468 6.27508 4.43449 6.06319 4.22259C5.85129 4.0107 5.7311 3.72405 5.7285 3.4244C5.72589 3.12475 5.84109 2.83606 6.04927 2.62051L7.15098 1.51766C8.12319 0.545448 9.44179 -0.000732422 10.8167 -0.000732422C12.1916 -0.000732422 13.5102 0.545448 14.4824 1.51766C15.4546 2.48986 16.0008 3.80846 16.0008 5.18337C16.0008 6.55828 15.4546 7.87688 14.4824 8.84908L13.3796 9.9508C13.2741 10.06 13.148 10.147 13.0086 10.2069C12.8692 10.2668 12.7192 10.2983 12.5674 10.2997C12.4157 10.301 12.2652 10.2721 12.1247 10.2146C11.9843 10.1571 11.8567 10.0723 11.7494 9.96497C11.6421 9.85766 11.5572 9.73006 11.4998 9.5896C11.4423 9.44915 11.4134 9.29866 11.4147 9.14691C11.416 8.99517 11.4475 8.8452 11.5074 8.70577C11.5673 8.56633 11.6544 8.44022 11.7636 8.3348L12.8653 7.23194C13.3834 6.68355 13.6672 5.95476 13.6565 5.20041C13.6458 4.44606 13.3414 3.72561 12.8079 3.19216C12.2745 2.6587 11.554 2.35427 10.7997 2.34356C10.0453 2.33285 9.31651 2.6167 8.76812 3.1348ZM4.23669 6.04909C4.45095 6.2634 4.57131 6.55404 4.57131 6.85708C4.57131 7.16013 4.45095 7.45077 4.23669 7.66508L3.13498 8.76794C2.61688 9.31633 2.33303 10.0451 2.34374 10.7995C2.35445 11.5538 2.65888 12.2743 3.19234 12.8077C3.7258 13.3412 4.44624 13.6456 5.20059 13.6563C5.95494 13.667 6.68373 13.3832 7.23212 12.8651L8.33498 11.7634C8.55053 11.5552 8.83921 11.44 9.13887 11.4426C9.43852 11.4452 9.72516 11.5654 9.93706 11.7773C10.149 11.9892 10.2691 12.2758 10.2718 12.5755C10.2744 12.8751 10.1592 13.1638 9.95098 13.3794L8.84927 14.4811C7.87365 15.436 6.56071 15.9676 5.19553 15.9604C3.83034 15.9531 2.52313 15.4076 1.55771 14.4424C0.592287 13.4771 0.0466046 12.17 0.0391401 10.8048C0.0316756 9.43959 0.563032 8.12657 1.51784 7.1508L2.62069 6.04909C2.83501 5.83483 3.12565 5.71447 3.42869 5.71447C3.73174 5.71447 4.02238 5.83483 4.23669 6.04909ZM10.5224 7.09366C10.7306 6.87811 10.8458 6.58942 10.8432 6.28977C10.8406 5.99012 10.7204 5.70347 10.5085 5.49158C10.2966 5.27968 10.0099 5.15949 9.7103 5.15689C9.41064 5.15428 9.12195 5.26948 8.90641 5.47766L5.47784 8.90623C5.26966 9.12177 5.15446 9.41046 5.15707 9.71012C5.15967 10.0098 5.27986 10.2964 5.49176 10.5083C5.70365 10.7202 5.9903 10.8404 6.28995 10.843C6.5896 10.8456 6.87829 10.7304 7.09384 10.5222L10.5224 7.09366Z" fill="#D9D9D9"/>
</g>
<defs>
<clipPath id="clip0_2344_1182">
<rect width="16" height="16" fill="white"/>
</clipPath>
</defs>
</svg>
