<svg width="16" height="11" viewBox="0 0 16 11" fill="none" xmlns="http://www.w3.org/2000/svg">
<path d="M6.4 7.85714L10.552 5.5L6.4 3.14286V7.85714ZM15.648 1.705C15.752 2.07429 15.824 2.56929 15.872 3.19786C15.928 3.82643 15.952 4.36857 15.952 4.84L16 5.5C16 7.22071 15.872 8.48571 15.648 9.295C15.448 10.0021 14.984 10.4579 14.264 10.6543C13.888 10.7564 13.2 10.8271 12.144 10.8743C11.104 10.9293 10.152 10.9529 9.272 10.9529L8 11C4.648 11 2.56 10.8743 1.736 10.6543C1.016 10.4579 0.552 10.0021 0.352 9.295C0.248 8.92571 0.176 8.43071 0.128 7.80214C0.0720001 7.17357 0.048 6.63143 0.048 6.16L0 5.5C0 3.77929 0.128 2.51429 0.352 1.705C0.552 0.997857 1.016 0.542143 1.736 0.345714C2.112 0.243571 2.8 0.172857 3.856 0.125714C4.896 0.0707142 5.848 0.0471428 6.728 0.0471428L8 0C11.352 0 13.44 0.125714 14.264 0.345714C14.984 0.542143 15.448 0.997857 15.648 1.705Z" fill="#999999"/>
</svg>
