<svg width="22" height="16" viewBox="0 0 22 16" fill="none" xmlns="http://www.w3.org/2000/svg">
<path d="M10.7038 15.5C8.54092 15.5 6.70025 14.7474 5.18175 13.2423C3.66308 11.7371 2.90375 9.90633 2.90375 7.75V6.96925L1.05375 8.81925L0 7.7655L3.65375 4.1115L7.3075 7.7655L6.25375 8.81925L4.40375 6.96925V7.75C4.40375 9.48717 5.01525 10.9632 6.23825 12.178C7.46142 13.3927 8.94992 14 10.7038 14C11.1179 14 11.5317 13.9548 11.945 13.8645C12.3585 13.774 12.7621 13.6384 13.1558 13.4578L14.2808 14.5828C13.7179 14.8853 13.1368 15.1137 12.5375 15.2682C11.938 15.4227 11.3268 15.5 10.7038 15.5ZM17.6538 11.3885L14 7.7345L15.0538 6.68075L16.9038 8.53075V7.75C16.9038 6.01283 16.2923 4.53683 15.0693 3.322C13.8461 2.10733 12.3576 1.5 10.6038 1.5C10.1896 1.5 9.77583 1.54517 9.3625 1.6355C8.949 1.726 8.54542 1.86158 8.15175 2.04225L7.02675 0.91725C7.58958 0.61475 8.17067 0.38625 8.77 0.23175C9.3695 0.0772505 9.98075 0 10.6038 0C12.7666 0 14.6073 0.752583 16.1258 2.25775C17.6444 3.76292 18.4038 5.59367 18.4038 7.75V8.53075L20.2538 6.68075L21.3075 7.7345L17.6538 11.3885Z" fill="#D9D9D9"/>
</svg>
