<svg width="34" height="34" viewBox="0 0 34 34" fill="none" xmlns="http://www.w3.org/2000/svg">
<path d="M18.659 28.52C17.465 28.8381 16.2347 28.9995 14.999 29C11.7601 28.9998 8.62137 27.8765 6.11776 25.8215C3.61416 23.7666 1.90052 20.9071 1.26885 17.7304C0.637168 14.5536 1.12653 11.2561 2.65355 8.39966C4.18057 5.54325 6.65077 3.30467 9.64325 2.06536C12.6357 0.826047 15.9654 0.662675 19.0648 1.60308C22.1642 2.54348 24.8417 4.52948 26.641 7.22268C28.4404 9.91588 29.2502 13.1496 28.9325 16.373C28.6149 19.5963 27.1894 22.6098 24.899 24.9" stroke="#D9D9D9" stroke-width="2" stroke-linecap="round" stroke-linejoin="round"/>
<path d="M32.9984 32.9999L24.8984 24.8999" stroke="#D9D9D9" stroke-width="2" stroke-linecap="round" stroke-linejoin="round"/>
</svg>
