<svg width="16" height="16" viewBox="0 0 16 16" fill="none" xmlns="http://www.w3.org/2000/svg">
<g clip-path="url(#clip0_2344_1184)">
<path d="M15.9628 6.2239L15.9629 6.22385L15.958 6.18284C15.9579 6.18214 15.9579 6.1816 15.9578 6.1809C15.9577 6.1803 15.9576 6.17976 15.9575 6.17917L15.939 6.02496C15.9353 5.99399 15.931 5.9587 15.9261 5.91844L15.9222 5.88639L15.9143 5.88736C15.7192 4.7774 15.183 3.72403 14.3527 2.82461C13.5262 1.9295 12.4524 1.22276 11.2475 0.780795C10.2151 0.402119 9.11973 0.210083 7.99185 0.210083C6.46916 0.210083 4.99034 0.568201 3.71532 1.2457C1.25662 2.55207 -0.193444 4.9533 0.0208768 7.36316C0.131814 8.61018 0.620348 9.7972 1.43371 10.796C2.19926 11.7361 3.23487 12.4948 4.42853 12.9899C5.16246 13.2944 5.88814 13.4378 6.6565 13.5897L6.74645 13.6075C6.95802 13.6494 7.01489 13.7069 7.02957 13.7297C7.05671 13.772 7.04252 13.8554 7.03162 13.9013C7.02158 13.9436 7.01122 13.9859 7.00086 14.0282C6.91836 14.3646 6.83305 14.7125 6.90007 15.0961C6.97712 15.5371 7.25247 15.79 7.65553 15.79H7.65564C8.08919 15.79 8.58264 15.4992 8.90913 15.3068L8.95273 15.2812C9.73167 14.8237 10.4655 14.3077 11.0178 13.9093C12.2262 13.0374 13.596 12.0491 14.6229 10.7705C15.657 9.48284 16.1442 7.82812 15.9628 6.2239ZM4.98262 8.66355H3.60227C3.39367 8.66355 3.22457 8.49444 3.22457 8.28584V5.38852C3.22457 5.17992 3.39367 5.01082 3.60227 5.01082C3.81087 5.01082 3.97998 5.17992 3.97998 5.38852V7.90814H4.98257C5.19117 7.90814 5.36027 8.07724 5.36027 8.28584C5.36033 8.49444 5.19122 8.66355 4.98262 8.66355ZM6.4226 8.27559C6.4226 8.48419 6.25349 8.6533 6.04489 8.6533C5.83629 8.6533 5.66719 8.48419 5.66719 8.27559V5.37827C5.66719 5.16967 5.83629 5.00057 6.04489 5.00057C6.25349 5.00057 6.4226 5.16967 6.4226 5.37827V8.27559ZM9.83672 8.27559C9.83672 8.43925 9.73134 8.58428 9.57568 8.63484C9.53726 8.64731 9.49792 8.65335 9.45907 8.65335C9.34042 8.65335 9.22581 8.59729 9.15335 8.49752L7.79323 6.62427V8.27565C7.79323 8.48425 7.62413 8.65335 7.41553 8.65335C7.20693 8.65335 7.03782 8.48425 7.03782 8.27565V5.46121C7.03782 5.29755 7.1432 5.15251 7.29887 5.10195C7.45459 5.05145 7.62505 5.10681 7.7212 5.23928L9.08131 7.11253V5.37827C9.08131 5.16967 9.25042 5.00057 9.45902 5.00057C9.66762 5.00057 9.83672 5.16967 9.83672 5.37827V8.27559ZM12.589 8.59383H10.7196C10.511 8.59383 10.3419 8.42473 10.3419 8.21613V6.76752V5.31881C10.3419 5.11021 10.511 4.94111 10.7196 4.94111H12.5309C12.7395 4.94111 12.9087 5.11021 12.9087 5.31881C12.9087 5.52741 12.7395 5.69652 12.5309 5.69652H11.0973V6.38982H12.2607C12.4693 6.38982 12.6384 6.55892 12.6384 6.76752C12.6384 6.97613 12.4693 7.14523 12.2607 7.14523H11.0973V7.83842H12.589C12.7976 7.83842 12.9667 8.00753 12.9667 8.21613C12.9667 8.42473 12.7976 8.59383 12.589 8.59383Z" fill="#D9D9D9"/>
</g>
<defs>
<clipPath id="clip0_2344_1184">
<rect width="16" height="16" fill="white"/>
</clipPath>
</defs>
</svg>
