<?xml version="1.0" encoding="UTF-8"?>
<svg id="_レイヤー_1" data-name="レイヤー 1" xmlns="http://www.w3.org/2000/svg" viewBox="0 0 583.88 84.42">
  <defs>
    <style>
      .cls-1 {
        fill: #2f4b9e;
      }

      .cls-2 {
        fill: #e8413d;
      }

      .cls-3 {
        fill: #fff;
      }
    </style>
  </defs>
  <g>
    <path class="cls-1" d="M20.26,0h-2.09C12.5.36,6.97,5.55,4.3,10.28c-5.69,10.09-6.22,22.59,1.35,31.86l.22.05c6.63.27,12.94-2.83,18.52-6.08,7.21-4.2,12.33-10.36,16.48-17.52,1.51-2.6,2.65-5.39,4.31-7.9l.02-.23c-1.63-.99-3.11-2.2-4.72-3.22C34.35,3.38,27.53.54,20.26,0Z"/>
    <path class="cls-2" d="M65.99,36.11c5.58,3.25,11.89,6.36,18.52,6.08l.22-.05c7.57-9.27,7.04-21.77,1.35-31.86-2.67-4.73-8.2-9.92-13.86-10.28h-2.09c-7.27.54-14.09,3.38-20.21,7.25-1.61,1.02-3.09,2.23-4.72,3.22l.02.23c1.66,2.51,2.8,5.3,4.31,7.9,4.14,7.16,9.27,13.31,16.48,17.52Z"/>
    <path class="cls-2" d="M40.86,65.83c-4.14-7.16-9.27-13.31-16.48-17.52-5.58-3.25-11.89-6.36-18.52-6.08l-.22.05c-7.57,9.27-7.04,21.77-1.35,31.86,2.67,4.73,8.2,9.92,13.86,10.28h2.09c7.27-.54,14.09-3.38,20.21-7.25,1.61-1.02,3.09-2.23,4.72-3.22l-.02-.23c-1.66-2.51-2.8-5.3-4.31-7.9Z"/>
    <path class="cls-1" d="M84.88,42.28l-.22-.05c-6.63-.27-12.94,2.83-18.52,6.08-7.21,4.2-12.33,10.36-16.48,17.52-1.51,2.6-2.65,5.39-4.31,7.9l-.02.23c1.63.99,3.11,2.2,4.72,3.22,6.12,3.87,12.94,6.71,20.21,7.25h2.09c5.67-.36,11.19-5.55,13.86-10.28,5.69-10.09,6.22-22.59-1.35-31.86Z"/>
  </g>
  <path class="cls-3" d="M104.05,1.17v82.08h-3.52V1.17h3.52ZM152.24,1.17l-39.4,39.16,43.15,42.91h-5.04l-43.15-42.91L147.2,1.17h5.04ZM164.7,1.17h44.91v46.78c0,12.51-2.15,21.73-6.45,27.67-4.3,5.86-11.26,8.79-20.87,8.79s-16.57-2.93-20.87-8.79c-4.3-5.94-6.45-15.16-6.45-27.67V1.17h3.52v46.78c0,6.49.55,11.96,1.64,16.42,1.09,4.38,2.74,7.74,4.92,10.08s4.65,4.03,7.39,5.04c2.74.94,6.02,1.41,9.85,1.41s7.11-.47,9.85-1.41c2.74-1.02,5.2-2.7,7.39-5.04,2.19-2.35,3.83-5.71,4.92-10.08,1.09-4.46,1.64-9.93,1.64-16.42V4.69h-41.39V1.17ZM230.18,79.73h46.2V9.5l-26.38,56.52-26.38-56.63v73.87l-3.52-.12V1.06h3.52l26.38,56.63L276.38,1.17l3.52-.12v82.19l-49.71-.12v-3.4ZM337,75.63c-4.3,5.86-11.26,8.79-20.87,8.79s-16.57-2.93-20.87-8.79c-4.3-5.94-6.45-15.16-6.45-27.67v-11.49c0-12.51,2.15-21.69,6.45-27.55C299.56,2.97,306.52,0,316.13,0s16.57,2.97,20.87,8.91c4.3,5.86,6.45,15.05,6.45,27.55v11.49c0,12.51-2.15,21.73-6.45,27.67ZM325.98,5.04c-2.74-1.02-6.02-1.52-9.85-1.52s-7.11.51-9.85,1.52c-2.74.94-5.2,2.58-7.39,4.92-2.19,2.35-3.83,5.75-4.92,10.2-1.09,4.38-1.64,9.81-1.64,16.3v11.49c0,6.49.55,11.96,1.64,16.42,1.09,4.38,2.74,7.74,4.92,10.08,2.19,2.35,4.65,4.03,7.39,5.04,2.74.94,6.02,1.41,9.85,1.41s7.11-.47,9.85-1.41c2.74-1.02,5.2-2.7,7.39-5.04,2.19-2.35,3.83-5.71,4.93-10.08,1.09-4.46,1.64-9.93,1.64-16.42v-11.49c0-6.49-.55-11.92-1.64-16.3-1.1-4.46-2.74-7.86-4.93-10.2-2.19-2.35-4.65-3.99-7.39-4.92ZM361.52,79.73h36.35L355.89,7.15v76.1h-3.52V1.17h4.1l43.85,75.86V1.17h3.52v82.08h-42.33v-3.52ZM460.92,75.63c-4.3,5.86-11.26,8.79-20.87,8.79s-16.57-2.93-20.87-8.79c-4.3-5.94-6.45-15.16-6.45-27.67v-11.49c0-12.51,2.15-21.69,6.45-27.55C423.48,2.97,430.43,0,440.05,0s16.57,2.97,20.87,8.91c4.3,5.86,6.45,15.05,6.45,27.55v11.49c0,12.51-2.15,21.73-6.45,27.67ZM449.9,5.04c-2.73-1.02-6.02-1.52-9.85-1.52s-7.11.51-9.85,1.52c-2.73.94-5.2,2.58-7.39,4.92-2.19,2.35-3.83,5.75-4.92,10.2-1.09,4.38-1.64,9.81-1.64,16.3v11.49c0,6.49.55,11.96,1.64,16.42,1.1,4.38,2.74,7.74,4.92,10.08,2.19,2.35,4.65,4.03,7.39,5.04,2.74.94,6.02,1.41,9.85,1.41s7.11-.47,9.85-1.41c2.74-1.02,5.2-2.7,7.39-5.04,2.19-2.35,3.83-5.71,4.92-10.08,1.1-4.46,1.64-9.93,1.64-16.42v-11.49c0-6.49-.55-11.92-1.64-16.3-1.09-4.46-2.73-7.86-4.92-10.2-2.19-2.35-4.65-3.99-7.39-4.92ZM473.83,21.46c0-7.58,1.92-13.05,5.75-16.42C483.41,1.68,489.62,0,498.22,0c6.02,0,10.87,1.56,14.54,4.69,3.67,3.13,6.33,7.89,7.97,14.3l-10.9,8.21h-5.75l12.66-9.5c-1.64-5.24-4.02-8.91-7.15-11.02-3.05-2.11-6.84-3.17-11.37-3.17-3.13,0-5.78.2-7.97.59-2.11.39-4.26,1.17-6.45,2.35-2.11,1.09-3.71,2.89-4.81,5.39-1.09,2.5-1.64,5.71-1.64,9.61,0,3.44,1.56,6.49,4.69,9.15,3.21,2.66,7.07,4.92,11.61,6.8,4.54,1.88,9.07,3.79,13.6,5.75,4.61,1.95,8.48,4.46,11.61,7.5,3.21,3.05,4.81,6.57,4.81,10.55,0,7.82-1.95,13.64-5.86,17.47-3.83,3.83-10.44,5.75-19.82,5.75-7.66,0-13.68-1.52-18.06-4.57-4.38-3.13-7.39-7.93-9.03-14.42l3.28-1.41c1.56,6.33,4.22,10.75,7.97,13.25,3.83,2.42,9.11,3.63,15.83,3.63,7.5,0,13.05-1.45,16.65-4.34,3.67-2.89,5.51-8.01,5.51-15.36,0-3.44-1.6-6.49-4.81-9.15-3.13-2.66-7-4.92-11.61-6.8-4.53-1.88-9.07-3.79-13.6-5.75-4.53-1.95-8.4-4.46-11.61-7.5-3.13-3.05-4.69-6.57-4.69-10.55ZM538.97,1.17h44.91v46.78c0,12.51-2.15,21.73-6.45,27.67-4.3,5.86-11.26,8.79-20.87,8.79s-16.57-2.93-20.87-8.79c-4.3-5.94-6.45-15.16-6.45-27.67V1.17h3.52v46.78c0,6.49.55,11.96,1.64,16.42,1.09,4.38,2.73,7.74,4.92,10.08,2.19,2.35,4.65,4.03,7.39,5.04,2.73.94,6.02,1.41,9.85,1.41s7.11-.47,9.85-1.41c2.73-1.02,5.2-2.7,7.39-5.04,2.19-2.35,3.83-5.71,4.92-10.08,1.09-4.46,1.64-9.93,1.64-16.42V4.69h-41.39V1.17Z"/>
</svg>